# xmcd
# 
# Track frame offsets:
#     150
#     5616
#     29528
#     44013
#     59975
#     85669
#     94243
#     116404
#     134421
#     150584
#     155592
#     183199
#     191854
#     203918
#     212906
#     230677
#     242337
# 
# Disc length: 3456
# 
# Revision: 1
# Processed by: cddbd v1.5.2PL0 Copyright (c) Steve Scherf et al.
# Submitted via: BonkEnc v1.0.8
# 
DISCID=f30d7e11
DTITLE=Andreas Vollenweider - Cosmopoly
DYEAR=0
DGENRE=New Age
TTITLE0=Morning Poem
TTITLE1=Stella
TTITLE2=Elle Chelle
TTITLE3=Vals Del Sur
TTITLE4=Hush, My Heart, Be Stil...
TTITLE5=Petit Smile
TTITLE6=Under One Moon
TTITLE7=Ancient Pulse
TTITLE8=Peachtree Valley
TTITLE9=Bright Moon, Still Shining...
TTITLE10=At The Forest Fountain
TTITLE11=Your Silver Key
TTITLE12=Long Road To You
TTITLE13=Capriccio
TTITLE14=Will-O'-The-Wisp
TTITLE15=Cor Do Amor
TTITLE16=The Fishbirdtree - Little Snap
EXTD=
EXTT0=
EXTT1=
EXTT2=
EXTT3=
EXTT4=
EXTT5=
EXTT6=
EXTT7=
EXTT8=
EXTT9=
EXTT10=
EXTT11=
EXTT12=
EXTT13=
EXTT14=
EXTT15=
EXTT16=
PLAYORDER=
